# xmcd
#
# Track frame offsets:
#	150
#	15828
#	29931
#	46582
#	58359
#	73661
#	86337
#	106290
#	126994
#	148746
#	163297
#	191735
#	209062
#	219338
#	232165
#	250392
#	262021
#	274323
#	295027
#	316444
#
# Disc length: 4453 seconds
#
# Revision: 1
# Processed by: cddbd v1.5.1PL0 Copyright (c) Steve Scherf et al.
# Submitted via: CDex 1.50Beta5
#
DISCID=43116314
DTITLE=椎名林檎 - 椎名林檎学舎エクスタシー(Live版)
DYEAR=1900
DGENRE=Pop
TTITLE0=ＵＦＯ
TTITLE1=So Cold
TTITLE2=丸の内サディスティック
TTITLE3=アイデンティティー
TTITLE4=乳頭デストロイヤー
TTITLE5=あおぞら(悦楽編)
TTITLE6=輪廻ハイライト
TTITLE7=警告
TTITLE8=果物の部屋
TTITLE9=Σ
TTITLE10=メロウ
TTITLE11=積木遊び
TTITLE12=不幸自慢 〜Fuck Of ”G” Men〜
TTITLE13=東京の女
TTITLE14=クリープ
TTITLE15=幸福論（悦楽編）
TTITLE16=歌舞伎町の女王
TTITLE17=シドと白昼夢
TTITLE18=罪と罰
TTITLE19=クレイジー・フォー・ユー
EXTD=
EXTT0=
EXTT1=
EXTT2=
EXTT3=
EXTT4=
EXTT5=
EXTT6=
EXTT7=
EXTT8=
EXTT9=
EXTT10=
EXTT11=
EXTT12=
EXTT13=
EXTT14=
EXTT15=
EXTT16=
EXTT17=
EXTT18=
EXTT19=
PLAYORDER=
